<?xml version="1.0" encoding="UTF-8"?>
<svg width="20px" height="20px" viewBox="0 0 20 20" version="1.1" xmlns="http://www.w3.org/2000/svg" xmlns:xlink="http://www.w3.org/1999/xlink">
    <!-- Generator: Sketch 52.5 (67469) - http://www.bohemiancoding.com/sketch -->
    <title>Combined Shape</title>
    <desc>Created with Sketch.</desc>
    <g id="Website" stroke="none" stroke-width="1" fill="none" fill-rule="evenodd">
        <g id="Website-Desktop-Contacts" transform="translate(-371.000000, -586.000000)" fill="#FFFFFF">
            <g id="Contact-Info" transform="translate(296.000000, 120.000000)">
                <g id="Branches" transform="translate(44.000000, 388.000000)">
                    <g id="New-Branch" transform="translate(21.000000, 68.000000)">
                        <path d="M18.8888889,18.8888889 L14.4444444,18.8888889 L14.4444444,21.1111111 L18.8888889,21.1111111 L18.8888889,25.5555556 L21.1111111,25.5555556 L21.1111111,21.1111111 L25.5555556,21.1111111 L25.5555556,18.8888889 L21.1111111,18.8888889 L21.1111111,14.4444444 L18.8888889,14.4444444 L18.8888889,18.8888889 Z M20,10 C25.5228475,10 30,14.4771525 30,20 C30,25.5228475 25.5228475,30 20,30 C14.4771525,30 10,25.5228475 10,20 C10,14.4771525 14.4771525,10 20,10 Z" id="Combined-Shape"></path>
                    </g>
                </g>
            </g>
        </g>
    </g>
</svg>